<?xml version="1.0" standalone="no"?>
<!DOCTYPE svg PUBLIC "-//W3C//DTD SVG 1.1//EN" "http://www.w3.org/Graphics/SVG/1.1/DTD/svg11.dtd">
<svg width="100%" height="100%" viewBox="0 0 40084 40513" version="1.1" xmlns="http://www.w3.org/2000/svg" xmlns:xlink="http://www.w3.org/1999/xlink" xml:space="preserve" style="fill-rule:evenodd;clip-rule:evenodd;stroke-linejoin:round;stroke-miterlimit:1.41421;">
    <g transform="matrix(4.16667,0,0,4.16667,-0,-0)">
        <g id="Layer_x0020_1">
            <path d="M1028,8153L1028,8514C1025,8621 1003,8717 964,8800C932,8871 882,8939 810,8993C739,9050 642,9082 514,9082C385,9082 285,9050 214,8993C143,8939 96,8872 64,8800C25,8718 3,8622 0,8514L0,6968C4,6864 25,6768 64,6686C96,6615 142,6543 214,6490C285,6436 385,6401 514,6401C643,6401 739,6437 810,6490C881,6544 931,6615 964,6686C1003,6768 1025,6864 1028,6968L1028,7329L667,7329L667,6968C667,6897 649,6847 610,6804C592,6786 560,6775 521,6775C453,6775 421,6825 403,6871C392,6900 389,6932 385,6968L385,8514C389,8589 410,8639 446,8678C464,8696 489,8707 521,8707C603,8707 635,8664 653,8611C664,8586 667,8554 667,8515L667,8154L1028,8154L1028,8153ZM2152,8578C2141,8767 2084,8899 1959,9003C1895,9057 1805,9081 1688,9081C1456,9081 1342,8952 1284,8824C1252,8749 1230,8663 1227,8567L1227,7585C1238,7396 1295,7257 1420,7150C1481,7096 1570,7071 1688,7071C1920,7071 2038,7200 2095,7325C2127,7400 2149,7482 2152,7575L2152,8578ZM1813,7585C1817,7510 1802,7457 1767,7414C1749,7396 1721,7385 1689,7385C1621,7385 1592,7431 1578,7485C1567,7514 1564,7546 1567,7585L1567,8567C1564,8642 1581,8696 1613,8735C1631,8753 1656,8764 1688,8764C1756,8764 1788,8721 1802,8668C1813,8639 1816,8607 1813,8568L1813,7586L1813,7585ZM3314,9053L2953,9053L2953,8924C2892,8981 2839,9024 2771,9056C2735,9074 2699,9081 2667,9081C2567,9081 2499,9024 2456,8949C2410,8878 2388,8781 2388,8699L2388,7453C2388,7371 2409,7275 2456,7200C2499,7129 2567,7071 2667,7071C2735,7071 2806,7110 2860,7150C2892,7175 2921,7200 2953,7228L2953,6428L3314,6428L3314,9053ZM2953,7528C2953,7471 2899,7410 2846,7410C2792,7410 2750,7460 2750,7528L2750,8624C2750,8692 2793,8742 2846,8742C2900,8742 2953,8692 2953,8624L2953,7528ZM4506,8353L4506,8578C4495,8767 4438,8899 4310,9003C4246,9057 4156,9081 4039,9081C3807,9081 3689,8952 3632,8824C3600,8749 3578,8663 3575,8567L3575,7585C3586,7396 3646,7257 3775,7150C3836,7096 3925,7071 4043,7071C4275,7071 4393,7200 4450,7325C4482,7400 4504,7482 4507,7575L4507,8143L3911,8143L3911,8568C3915,8643 3936,8697 3968,8736C3986,8754 4011,8765 4043,8765C4111,8765 4143,8722 4157,8669C4168,8640 4171,8608 4171,8569L4171,8355L4507,8355L4506,8353ZM3910,7860L4171,7860L4171,7585C4171,7510 4157,7457 4121,7414C4103,7396 4075,7385 4043,7385C3975,7385 3946,7431 3929,7485C3918,7514 3915,7546 3911,7585L3911,7860L3910,7860ZM5468,7471C5436,7460 5400,7457 5368,7457C5311,7457 5243,7464 5186,7518C5118,7575 5107,7636 5107,7696L5107,9053L4746,9053L4746,7100L5107,7100L5107,7318C5111,7293 5136,7232 5193,7175C5250,7121 5336,7071 5468,7071L5468,7471ZM5625,9053L5625,6429L5929,6429C6286,6429 6479,6500 6582,6700C6682,6900 6696,7229 6696,7743C6696,8257 6682,8582 6582,8782C6479,8982 6286,9053 5929,9053L5625,9053ZM6011,8667C6143,8667 6218,8653 6257,8524C6275,8463 6289,8370 6293,8246C6297,8121 6297,7953 6297,7739C6297,7525 6297,7357 6293,7232C6290,7111 6275,7018 6257,6954C6218,6829 6143,6815 6011,6815L6011,8668L6011,8667ZM7843,8578C7832,8767 7775,8899 7650,9003C7586,9057 7496,9081 7379,9081C7147,9081 7033,8952 6975,8824C6943,8749 6921,8663 6918,8567L6918,7585C6929,7396 6986,7257 7111,7150C7172,7096 7261,7071 7379,7071C7611,7071 7729,7200 7786,7325C7818,7400 7840,7482 7843,7575L7843,8578ZM7504,7585C7508,7510 7493,7457 7458,7414C7440,7396 7412,7385 7380,7385C7312,7385 7283,7431 7269,7485C7258,7514 7255,7546 7258,7585L7258,8567C7255,8642 7272,8696 7304,8735C7322,8753 7347,8764 7379,8764C7447,8764 7479,8721 7493,8668C7504,8639 7507,8607 7504,8568L7504,7586L7504,7585ZM8083,6428L8444,6428L8444,6789L8083,6789L8083,6428ZM8444,7099L8444,9102C8444,9202 8444,9359 8394,9488C8344,9620 8233,9724 8030,9724C7973,9724 7934,9720 7909,9713C7895,9709 7884,9706 7873,9702L7873,9370C7884,9373 7894,9373 7905,9377C7930,9381 7951,9384 7973,9384C8034,9384 8062,9334 8076,9273C8080,9244 8083,9212 8083,9180C8083,9148 8083,9119 8083,9098L8083,7099L8444,7099ZM9621,8577C9610,8766 9553,8898 9428,9002C9364,9056 9274,9080 9157,9080C8925,9080 8811,8951 8753,8823C8721,8748 8699,8662 8696,8566L8696,7584C8707,7395 8764,7256 8889,7149C8950,7095 9039,7070 9157,7070C9389,7070 9507,7199 9564,7324C9596,7399 9618,7481 9621,7574L9621,8577ZM9282,7584C9286,7509 9271,7456 9236,7413C9218,7395 9190,7384 9158,7384C9090,7384 9061,7430 9047,7484C9036,7513 9033,7545 9036,7584L9036,8566C9033,8641 9050,8695 9082,8734C9100,8752 9125,8763 9157,8763C9225,8763 9257,8720 9271,8667C9282,8638 9285,8606 9282,8567L9282,7585L9282,7584Z" style="fill:rgb(254,254,254);"/>
            <g id="_981383680_">
                <path d="M4366,1800L4366,773C4366,728 4382,689 4415,657C4448,624 4487,608 4532,608L5068,608C5112,608 5151,624 5183,657C5215,690 5232,729 5232,773L5232,1800C5232,1846 5216,1885 5183,1917C5151,1949 5112,1966 5066,1966L4533,1966C4487,1966 4447,1950 4415,1917C4383,1885 4367,1846 4367,1800L4366,1800ZM5061,1794L5061,781L4538,781L4538,1794L5061,1794Z" style="fill:white;"/>
                <path d="M4830,0C6435,0 7737,1301 7737,2907C7737,4512 6436,5814 4830,5814C3225,5814 1923,4513 1923,2907C1923,1302 3224,0 4830,0ZM4801,150C4787,150 4774,150 4760,151C3257,173 2044,1399 2044,2907C2044,4417 3260,5644 4765,5663C4021,5644 3422,5034 3422,4285C3422,3524 4040,2907 4800,2907C5561,2907 6178,2289 6178,1529C6178,768 5560,151 4800,151L4801,150ZM5254,5078C5278,5078 5298,5070 5315,5053C5332,5036 5340,5016 5340,4992L5340,4548C5340,4524 5332,4504 5315,4487C5298,4470 5278,4462 5254,4462C5230,4462 5210,4471 5193,4488C5176,4505 5168,4525 5168,4548L5168,4906L4996,4906L4996,3721L4565,3721C4541,3721 4521,3729 4504,3746C4487,3763 4479,3783 4479,3807C4479,3831 4487,3851 4504,3868C4521,3885 4541,3893 4565,3893L4825,3893L4825,4906L4561,4906C4537,4906 4517,4915 4500,4931C4483,4947 4475,4967 4475,4990C4475,5014 4483,5035 4500,5052C4517,5069 4537,5078 4561,5078L5254,5078Z" style="fill:white;"/>
            </g>
        </g>
    </g>
</svg>
